<mxfile host="app.diagrams.net" agent="Mozilla/5.0 (Windows NT 10.0; Win64; x64) AppleWebKit/537.36 (KHTML, like Gecko) Chrome/140.0.0.0 Safari/537.36" version="28.2.3">
  <diagram name="Homelab_GNS3" id="QLJ8opGYTa6LqT-W18-K">
    <mxGraphModel dx="2210" dy="862" grid="1" gridSize="10" guides="1" tooltips="1" connect="1" arrows="1" fold="1" page="1" pageScale="1" pageWidth="850" pageHeight="1100" math="0" shadow="0">
      <root>
        <mxCell id="0" />
        <mxCell id="1" parent="0" />
        <mxCell id="Sz-dFq2v3GZzCiXhXyLp-1" value="Home LAN&#xa;192.168.5.0/24" style="shape=cloud;whiteSpace=wrap;html=1;align=center;fontSize=14;" vertex="1" parent="1">
          <mxGeometry x="20" y="20" width="260" height="100" as="geometry" />
        </mxCell>
        <mxCell id="Sz-dFq2v3GZzCiXhXyLp-2" value="Windows PC&lt;br&gt;192.168.5.15 (DHCP)" style="shape=process;whiteSpace=wrap;rounded=1;html=1;align=center;arcSize=10;" vertex="1" parent="1">
          <mxGeometry x="40" y="210" width="220" height="80" as="geometry" />
        </mxCell>
        <mxCell id="Sz-dFq2v3GZzCiXhXyLp-3" value="Linux host / homelab&lt;br&gt;KVM + GNS3&lt;br&gt;192.168.5.8 (STATIC)" style="shape=process;whiteSpace=wrap;rounded=1;html=1;align=center;arcSize=10;" vertex="1" parent="1">
          <mxGeometry x="310" y="200" width="260" height="100" as="geometry" />
        </mxCell>
        <mxCell id="Sz-dFq2v3GZzCiXhXyLp-4" value="libvirt NAT&#xa;192.168.122.0/24" style="shape=cloud;whiteSpace=wrap;html=1;align=center;fontSize=14;" vertex="1" parent="1">
          <mxGeometry x="410" y="395" width="220" height="90" as="geometry" />
        </mxCell>
        <mxCell id="Sz-dFq2v3GZzCiXhXyLp-5" value="Ubuntu VM (GNS3 OOB-ADMIN)&lt;br&gt;192.168.122.4 (DHCP)" style="shape=process;whiteSpace=wrap;rounded=1;html=1;align=center;arcSize=10;" vertex="1" parent="1">
          <mxGeometry x="40" y="470" width="260" height="100" as="geometry" />
        </mxCell>
        <mxCell id="Sz-dFq2v3GZzCiXhXyLp-6" value="pfSense (edge)" style="shape=process;whiteSpace=wrap;rounded=1;html=1;align=center;arcSize=10;fillColor=#e1f5fe;strokeColor=#0288d1;" vertex="1" parent="1">
          <mxGeometry x="480" y="40" width="220" height="80" as="geometry" />
        </mxCell>
        <mxCell id="Sz-dFq2v3GZzCiXhXyLp-10" edge="1" parent="1" source="Sz-dFq2v3GZzCiXhXyLp-3" target="Sz-dFq2v3GZzCiXhXyLp-4">
          <mxGeometry relative="1" as="geometry" />
        </mxCell>
        <mxCell id="Sz-dFq2v3GZzCiXhXyLp-11" edge="1" parent="1" source="Sz-dFq2v3GZzCiXhXyLp-4" target="Sz-dFq2v3GZzCiXhXyLp-5">
          <mxGeometry relative="1" as="geometry" />
        </mxCell>
        <mxCell id="Sz-dFq2v3GZzCiXhXyLp-14" value="Windows can reach Linux host directly on 192.168.5.x" style="shape=note;whiteSpace=wrap;html=1;" vertex="1" parent="1">
          <mxGeometry x="30" y="290" width="260" height="70" as="geometry" />
        </mxCell>
        <mxCell id="Sz-dFq2v3GZzCiXhXyLp-15" value="VM is behind libvirt NAT; not reachable from Windows without port-forward or bridging" style="shape=note;whiteSpace=wrap;html=1;" vertex="1" parent="1">
          <mxGeometry x="20" y="570" width="300" height="100" as="geometry" />
        </mxCell>
        <mxCell id="Sz-dFq2v3GZzCiXhXyLp-16" value="" style="endArrow=classic;startArrow=classic;html=1;rounded=0;entryX=0.31;entryY=0.8;entryDx=0;entryDy=0;entryPerimeter=0;exitX=0.25;exitY=0;exitDx=0;exitDy=0;" edge="1" parent="1" source="Sz-dFq2v3GZzCiXhXyLp-2" target="Sz-dFq2v3GZzCiXhXyLp-1">
          <mxGeometry width="50" height="50" relative="1" as="geometry">
            <mxPoint x="430" y="310" as="sourcePoint" />
            <mxPoint x="480" y="260" as="targetPoint" />
          </mxGeometry>
        </mxCell>
        <mxCell id="Sz-dFq2v3GZzCiXhXyLp-18" value="" style="endArrow=classic;startArrow=classic;html=1;rounded=0;entryX=0.55;entryY=0.95;entryDx=0;entryDy=0;entryPerimeter=0;exitX=0.5;exitY=0;exitDx=0;exitDy=0;" edge="1" parent="1" source="Sz-dFq2v3GZzCiXhXyLp-3" target="Sz-dFq2v3GZzCiXhXyLp-1">
          <mxGeometry width="50" height="50" relative="1" as="geometry">
            <mxPoint x="390" y="243" as="sourcePoint" />
            <mxPoint x="534" y="160" as="targetPoint" />
          </mxGeometry>
        </mxCell>
        <mxCell id="Sz-dFq2v3GZzCiXhXyLp-19" value="" style="endArrow=classic;startArrow=classic;html=1;rounded=0;entryX=0.96;entryY=0.7;entryDx=0;entryDy=0;entryPerimeter=0;exitX=0;exitY=0.5;exitDx=0;exitDy=0;" edge="1" parent="1" source="Sz-dFq2v3GZzCiXhXyLp-6" target="Sz-dFq2v3GZzCiXhXyLp-1">
          <mxGeometry width="50" height="50" relative="1" as="geometry">
            <mxPoint x="470" y="40" as="sourcePoint" />
            <mxPoint x="784" y="160" as="targetPoint" />
          </mxGeometry>
        </mxCell>
        <mxCell id="Sz-dFq2v3GZzCiXhXyLp-20" value="ATT Home Fiber" style="shape=cloud;whiteSpace=wrap;html=1;align=center;fontSize=14;" vertex="1" parent="1">
          <mxGeometry x="630" y="200" width="260" height="100" as="geometry" />
        </mxCell>
        <mxCell id="Sz-dFq2v3GZzCiXhXyLp-21" value="" style="endArrow=classic;startArrow=classic;html=1;rounded=0;entryX=0.526;entryY=0.097;entryDx=0;entryDy=0;entryPerimeter=0;exitX=1;exitY=1;exitDx=0;exitDy=0;" edge="1" parent="1" source="Sz-dFq2v3GZzCiXhXyLp-6" target="Sz-dFq2v3GZzCiXhXyLp-20">
          <mxGeometry width="50" height="50" relative="1" as="geometry">
            <mxPoint x="832" y="230" as="sourcePoint" />
            <mxPoint x="700" y="160" as="targetPoint" />
          </mxGeometry>
        </mxCell>
        <mxCell id="Sz-dFq2v3GZzCiXhXyLp-23" value="Students" style="shape=cloud;whiteSpace=wrap;html=1;align=center;fontSize=14;" vertex="1" parent="1">
          <mxGeometry x="550" y="550" width="260" height="100" as="geometry" />
        </mxCell>
        <mxCell id="Sz-dFq2v3GZzCiXhXyLp-24" value="" style="endArrow=classic;startArrow=classic;html=1;rounded=0;entryX=0.625;entryY=0.2;entryDx=0;entryDy=0;entryPerimeter=0;exitX=0.55;exitY=0.95;exitDx=0;exitDy=0;exitPerimeter=0;" edge="1" parent="1" source="Sz-dFq2v3GZzCiXhXyLp-20" target="Sz-dFq2v3GZzCiXhXyLp-23">
          <mxGeometry width="50" height="50" relative="1" as="geometry">
            <mxPoint x="1090" y="340" as="sourcePoint" />
            <mxPoint x="1157" y="430" as="targetPoint" />
          </mxGeometry>
        </mxCell>
      </root>
    </mxGraphModel>
  </diagram>
</mxfile>
